<?xml version="1.0" standalone="no"?>
<!DOCTYPE svg PUBLIC "-//W3C//DTD SVG 20010904//EN"
 "http://www.w3.org/TR/2001/REC-SVG-20010904/DTD/svg10.dtd">
<svg version="1.0" xmlns="http://www.w3.org/2000/svg"
 width="60.000000pt" height="45.000000pt" viewBox="0 0 60.000000 45.000000"
 preserveAspectRatio="xMidYMid meet">

<g transform="translate(0.000000,45.000000) scale(0.100000,-0.100000)"
fill="#000000" stroke="none">
<path d="M470 420 c-49 -15 -98 -19 -201 -20 -121 0 -139 -2 -162 -20 -14 -11
-32 -20 -40 -20 -24 0 -46 -34 -56 -86 -16 -85 14 -184 56 -184 8 0 26 -9 40
-20 23 -18 41 -20 159 -20 104 0 151 -5 206 -20 109 -30 110 -30 91 27 -17 48
-17 49 20 134 15 33 14 38 -10 93 -26 56 -26 58 -11 107 16 48 16 49 -5 48
-12 0 -51 -9 -87 -19z m42 -34 l-41 -45 19 -43 c25 -54 25 -92 0 -146 l-19
-43 40 -43 40 -44 -83 21 c-46 11 -90 26 -99 34 -51 43 -52 240 -2 293 11 12
62 29 182 59 2 1 -15 -19 -37 -43z m32 -24 c-4 -29 -1 -47 15 -73 12 -19 21
-47 21 -64 0 -16 -9 -45 -21 -64 -16 -26 -19 -44 -15 -73 l6 -39 -25 17 c-41
27 -45 44 -24 86 25 48 24 99 -1 149 l-21 40 32 30 c17 16 33 29 35 29 2 0 1
-17 -2 -38z m-391 -14 c-13 -25 -18 -56 -18 -123 0 -67 5 -98 18 -122 l18 -33
-30 0 c-47 0 -65 44 -66 155 0 108 20 155 67 155 l29 0 -18 -32z m120 5 c-14
-21 -18 -48 -18 -128 0 -80 4 -107 18 -128 l17 -27 -55 0 c-51 0 -56 2 -72 32
-13 25 -17 56 -17 123 0 67 4 98 17 123 16 30 21 32 72 32 l55 0 -17 -27z m77
25 c0 -2 -7 -21 -15 -43 -8 -22 -14 -71 -14 -110 0 -38 6 -88 14 -110 8 -22
15 -41 15 -42 0 -2 -11 -3 -25 -3 -38 0 -65 64 -65 155 0 91 27 155 65 155 14
0 25 -1 25 -2z m-277 -55 c-10 -36 -10 -160 0 -195 10 -39 -18 -38 -38 2 -20
38 -20 152 0 190 20 40 48 41 38 3z"/>
<path d="M198 333 c6 -2 18 -2 25 0 6 3 1 5 -13 5 -14 0 -19 -2 -12 -5z"/>
<path d="M183 263 c9 -2 23 -2 30 0 6 3 -1 5 -18 5 -16 0 -22 -2 -12 -5z"/>
<path d="M183 183 c9 -2 23 -2 30 0 6 3 -1 5 -18 5 -16 0 -22 -2 -12 -5z"/>
<path d="M198 113 c6 -2 18 -2 25 0 6 3 1 5 -13 5 -14 0 -19 -2 -12 -5z"/>
</g>
</svg>
